<svg id="Layer_1" data-name="Layer 1" xmlns="http://www.w3.org/2000/svg" viewBox="19 19 83 83"><defs><style>.cls-1{fill:#51bcef;}.cls-2{fill:#0a60dd;}</style></defs><title>blockfrost logo</title><path class="cls-1" d="M100.07,83a3.93,3.93,0,0,1-3.92,3.92H26a3.92,3.92,0,1,1,0-7.83h70.2A3.91,3.91,0,0,1,100.07,83Z"/><path class="cls-1" d="M80.49,96a3.93,3.93,0,0,1-3.92,3.91h-31a3.92,3.92,0,1,1,0-7.83h31A3.92,3.92,0,0,1,80.49,96Z"/><path class="cls-1" d="M65.08,53.89A3.91,3.91,0,0,1,61.51,56a3.83,3.83,0,0,1-1.67-.4l-22-10.93V74H30V40a7.66,7.66,0,0,1,.35-2.4A6.61,6.61,0,0,1,31,36.33,3.92,3.92,0,0,1,36,35.06l6.13,3L63.3,48.65A3.93,3.93,0,0,1,65.08,53.89Z"/><path class="cls-2" d="M91.34,36.63a.42.42,0,0,0,0-.1c0-.08-.09-.15-.14-.23s-.16-.28-.25-.42l0,0A7.64,7.64,0,0,0,88,33.26L63.38,21.08a5.15,5.15,0,0,0-4.59,0L34.24,33.26A7.5,7.5,0,0,0,31,36.33,3.91,3.91,0,0,1,36,35.07l6.13,3,19-9.42L79.6,37.87,59.42,47.79a3.92,3.92,0,0,0-2.24,3.54V74H65V54.15a.54.54,0,0,1,.31-.49l19-9.37V74h7.84V40A7.5,7.5,0,0,0,91.34,36.63Z"/></svg>
